<?xml version="1.0" encoding="utf-8"?>
<!-- Generator: Adobe Illustrator 27.5.0, SVG Export Plug-In . SVG Version: 6.00 Build 0)  -->
<svg version="1.1" xmlns="http://www.w3.org/2000/svg" xmlns:xlink="http://www.w3.org/1999/xlink" x="0px" y="0px"
	 viewBox="0 0 1122 1122" style="enable-background:new 0 0 1122 1122;" xml:space="preserve">
<g id="Bg">
	<rect style="fill:#FFFFFF;" width="1122" height="1122"/>
</g>
<g id="Object">
	<g>
		<rect x="254.391" y="409.728" style="fill:#82BFAB;" width="609.138" height="104.649"/>
		<path style="fill:#616E7D;" d="M871.555,551.215l1.354,0.054v-190.06c0-17.77-14.408-32.178-32.2-32.178H277.206
			c-17.792,0-32.206,14.408-32.206,32.178v346.174c0,17.775,14.413,32.194,32.206,32.194h445.033
			c-2.628-11.223-4.152-22.86-4.152-34.876C718.086,620.066,786.94,551.215,871.555,551.215z M254.391,492.7V388.051h609.138V492.7
			H254.391z"/>
		<path style="fill:#616E7D;" d="M673.845,665.377c0,69.246,56.334,125.592,125.563,125.592C868.66,790.969,925,734.623,925,665.377
			c0-69.263-56.34-125.592-125.592-125.592C730.178,539.785,673.845,596.113,673.845,665.377z M897.327,665.377
			c0,53.331-43.229,96.572-96.56,96.572c-53.331,0-96.566-43.24-96.566-96.572c0-53.325,43.234-96.56,96.566-96.56
			C854.098,568.817,897.327,612.052,897.327,665.377z"/>
		<path style="fill:#FFFFFF;" d="M796.695,739.594h11.046c3.339,0,6.035-2.699,6.035-6.029v-10.273
			c8.845-1.32,16.546-4.092,23.087-8.373c10.307-6.82,15.603-16.182,15.836-28.173c0.165-7.474-1.917-13.822-6.223-19.032
			c-6.996-8.333-17.9-13.546-32.7-15.625v-20.801c2.599,1.223,5.13,2.861,7.531,4.96c1.496,1.234,3.208,1.86,5.17,1.871
			c1.581,0.005,3.766-1.104,3.766-1.104l0.04-0.02l12.388-7.767c1.678-1.064,2.548-2.435,2.599-4.095
			c0-1.334-0.535-2.497-1.649-3.498c-7.719-8.788-17.684-14.243-29.845-16.359v-11.712c0-3.333-2.696-6.041-6.035-6.041h-11.046
			c-3.322,0-6.029,2.708-6.029,6.041v11.404c-5.716,0.797-10.893,2.247-15.5,4.349c-14.869,6.766-22.155,16.913-21.905,30.349
			c0.108,6.621,2.116,12.474,5.95,17.562c6.473,8.672,16.962,14.095,31.455,16.333v25.978c-6.268-2.213-12.184-6.331-17.77-12.377
			c-1.211-1.587-2.855-2.383-4.891-2.383c-1.109,0-3.305,0.961-3.305,0.961l-0.023,0.012l-11.268,6.61
			c-1.923,1.12-2.872,2.605-2.827,4.428c0.017,1.186,0.455,2.249,1.308,3.208c2.941,4.092,6.877,8.023,11.802,11.768
			c7.969,6.134,16.962,9.957,26.973,11.544v10.256C790.665,736.896,793.373,739.594,796.695,739.594z M813.776,676.344
			c5.961,1.888,8.987,5.352,8.936,10.471c-0.023,4.755-2.224,8.441-6.519,11.055c-0.757,0.483-1.576,0.89-2.417,1.268V676.344z
			 M783.385,639.732c-0.04-3.723,2.104-6.612,6.427-8.677l0.853-0.33v18.44C785.83,647.318,783.407,644.172,783.385,639.732z"/>
		<path style="fill:#AAD4C8;" d="M786.758,645.179c0.029,4.445,2.451,7.579,7.275,9.442v-18.452l-0.842,0.333
			C788.868,638.569,786.723,641.465,786.758,645.179z"/>
		<path style="fill:#AAD4C8;" d="M809.942,693.561c0.842-0.381,1.666-0.785,2.417-1.274c4.311-2.611,6.484-6.297,6.536-11.052
			c0.034-5.119-2.992-8.592-8.953-10.474V693.561z"/>
		<path style="fill:#AAD4C8;" d="M703.889,665.377c0,53.331,43.24,96.572,96.571,96.572c53.326,0,96.561-43.24,96.561-96.572
			c0-53.325-43.235-96.56-96.561-96.56C747.129,568.817,703.889,612.052,703.889,665.377z M814.134,593.016v11.714
			c12.161,2.116,22.126,7.571,29.834,16.359c1.126,0.998,1.644,2.167,1.644,3.504c-0.034,1.655-0.91,3.02-2.588,4.09l-12.395,7.77
			l-0.023,0.017c0,0-2.195,1.109-3.766,1.103c-1.973-0.011-3.686-0.637-5.176-1.877c-2.412-2.093-4.938-3.737-7.531-4.954v20.804
			c14.8,2.079,25.704,7.284,32.695,15.62c4.3,5.207,6.388,11.561,6.228,19.04c-0.233,11.985-5.529,21.348-15.83,28.165
			c-6.553,4.286-14.254,7.062-23.093,8.376v10.269c0,3.336-2.707,6.027-6.035,6.027h-11.052c-3.322,0-6.035-2.69-6.035-6.027v-10.25
			c-10.005-1.596-19.004-5.409-26.967-11.549c-4.92-3.746-8.868-7.67-11.797-11.763c-0.853-0.958-1.291-2.022-1.314-3.213
			c-0.04-1.82,0.905-3.305,2.827-4.423l11.262-6.607l0.034-0.02c0,0,2.19-0.959,3.299-0.959c2.036,0,3.675,0.791,4.886,2.389
			c5.592,6.043,11.501,10.159,17.77,12.374V673.01c-14.493-2.23-24.976-7.656-31.449-16.324c-3.84-5.091-5.842-10.947-5.95-17.565
			c-0.25-13.435,7.042-23.58,21.91-30.342c4.596-2.113,9.778-3.555,15.489-4.36v-11.402c0-3.333,2.713-6.038,6.035-6.038h11.052
			C811.427,586.979,814.134,589.683,814.134,593.016z"/>
	</g>
</g>
</svg>
